<svg xmlns="http://www.w3.org/2000/svg" width="224" height="226" viewBox="0 0 224 226">
  <g id="Group_32" data-name="Group 32" transform="translate(187 -1012)">
    <rect id="Rectangle_455" data-name="Rectangle 455" width="224" height="226" rx="22" transform="translate(-187 1012)" fill="#eaeaea"/>
    <g id="Group_15" data-name="Group 15" transform="translate(-10 -275)">
      <g id="Rectangle_442" data-name="Rectangle 442" transform="translate(-167 1297)" fill="none" stroke="#707070" stroke-linejoin="round" stroke-width="3">
        <rect width="204" height="206" rx="16" stroke="none"/>
        <rect x="1.5" y="1.5" width="201" height="203" rx="14.5" fill="none"/>
      </g>
      <circle id="Ellipse_58" data-name="Ellipse 58" cx="6.5" cy="6.5" r="6.5" transform="translate(-156 1304)" fill="#707070"/>
      <circle id="Ellipse_59" data-name="Ellipse 59" cx="6.5" cy="6.5" r="6.5" transform="translate(15 1304)" fill="#707070"/>
      <circle id="Ellipse_60" data-name="Ellipse 60" cx="6.5" cy="6.5" r="6.5" transform="translate(-71 1304)" fill="#707070"/>
      <circle id="Ellipse_61" data-name="Ellipse 61" cx="6.5" cy="6.5" r="6.5" transform="translate(-28 1304)" fill="#707070"/>
      <circle id="Ellipse_62" data-name="Ellipse 62" cx="6.5" cy="6.5" r="6.5" transform="translate(-114 1304)" fill="#707070"/>
      <circle id="Ellipse_63" data-name="Ellipse 63" cx="6.5" cy="6.5" r="6.5" transform="translate(-157 1482)" fill="#707070"/>
      <circle id="Ellipse_64" data-name="Ellipse 64" cx="6.5" cy="6.5" r="6.5" transform="translate(14 1482)" fill="#707070"/>
      <circle id="Ellipse_65" data-name="Ellipse 65" cx="6.5" cy="6.5" r="6.5" transform="translate(-72 1482)" fill="#707070"/>
      <circle id="Ellipse_66" data-name="Ellipse 66" cx="6.5" cy="6.5" r="6.5" transform="translate(-29 1482)" fill="#707070"/>
      <circle id="Ellipse_67" data-name="Ellipse 67" cx="6.5" cy="6.5" r="6.5" transform="translate(-115 1482)" fill="#707070"/>
      <circle id="Ellipse_68" data-name="Ellipse 68" cx="6.5" cy="6.5" r="6.5" transform="translate(-157 1393)" fill="#707070"/>
      <circle id="Ellipse_69" data-name="Ellipse 69" cx="6.5" cy="6.5" r="6.5" transform="translate(14 1393)" fill="#707070"/>
      <circle id="Ellipse_70" data-name="Ellipse 70" cx="6.5" cy="6.5" r="6.5" transform="translate(-156 1439)" fill="#707070"/>
      <circle id="Ellipse_71" data-name="Ellipse 71" cx="6.5" cy="6.5" r="6.5" transform="translate(14 1439)" fill="#707070"/>
      <circle id="Ellipse_72" data-name="Ellipse 72" cx="6.5" cy="6.5" r="6.5" transform="translate(-156 1347)" fill="#707070"/>
      <circle id="Ellipse_73" data-name="Ellipse 73" cx="6.5" cy="6.5" r="6.5" transform="translate(14 1347)" fill="#707070"/>
      <g id="Rectangle_443" data-name="Rectangle 443" transform="translate(-122 1297)" fill="none" stroke="#707070" stroke-linejoin="round" stroke-width="3">
        <rect width="116" height="206" rx="16" stroke="none"/>
        <rect x="1.5" y="1.5" width="113" height="203" rx="14.5" fill="none"/>
      </g>
      <g id="Rectangle_444" data-name="Rectangle 444" transform="translate(-167 1340)" fill="none" stroke="#707070" stroke-linejoin="round" stroke-width="3">
        <rect width="204" height="120" rx="16" stroke="none"/>
        <rect x="1.5" y="1.5" width="201" height="117" rx="14.5" fill="none"/>
      </g>
      <g id="Rectangle_445" data-name="Rectangle 445" transform="translate(-167 1388)" fill="none" stroke="#707070" stroke-linejoin="round" stroke-width="3">
        <rect width="204" height="72" rx="16" stroke="none"/>
        <rect x="1.5" y="1.5" width="201" height="69" rx="14.5" fill="none"/>
      </g>
      <g id="Rectangle_446" data-name="Rectangle 446" transform="translate(-122 1297)" fill="none" stroke="#707070" stroke-linejoin="round" stroke-width="3">
        <rect width="71" height="206" rx="16" stroke="none"/>
        <rect x="1.5" y="1.5" width="68" height="203" rx="14.5" fill="none"/>
      </g>
    </g>
  </g>
</svg>
